<?xml version="1.0" standalone="no"?>
<!DOCTYPE svg PUBLIC "-//W3C//DTD SVG 20010904//EN"
 "http://www.w3.org/TR/2001/REC-SVG-20010904/DTD/svg10.dtd">
<svg version="1.0" xmlns="http://www.w3.org/2000/svg"
 width="184.000000pt" height="184.000000pt" viewBox="0 0 184.000000 184.000000"
 preserveAspectRatio="xMidYMid meet">

<g transform="translate(0.000000,184.000000) scale(0.100000,-0.100000)"
fill="#000000" stroke="none">
<path d="M0 920 l0 -920 920 0 920 0 0 920 0 920 -920 0 -920 0 0 -920z m499
518 c21 -46 51 -116 67 -155 16 -40 31 -73 34 -73 3 0 29 60 59 133 73 179 71
177 131 177 l50 0 0 -245 0 -245 -46 0 -46 0 4 168 3 167 -62 -144 c-35 -80
-63 -146 -63 -149 0 -2 -15 -2 -32 0 -32 3 -35 7 -94 146 l-62 143 5 -165 6
-166 -52 0 -51 0 0 238 c0 131 3 242 7 245 3 4 28 7 55 7 l49 0 38 -82z m861
60 c42 -18 65 -43 74 -82 9 -36 -10 -91 -37 -112 -18 -13 -19 -17 -7 -22 8 -3
27 -18 42 -33 52 -51 33 -153 -36 -195 -26 -16 -56 -20 -183 -22 l-153 -4 0
239 c0 132 3 243 8 248 12 13 254 -1 292 -17z m-550 -773 l0 -45 -80 0 -80 0
0 -200 0 -200 -50 0 -50 0 0 200 0 200 -80 0 -80 0 0 45 0 45 210 0 210 0 0
-45z m620 0 l0 -45 -65 0 -65 0 0 -155 0 -155 65 0 65 0 0 -45 0 -45 -180 0
-180 0 0 45 0 45 65 0 65 0 0 155 0 155 -65 0 -65 0 0 45 0 45 180 0 180 0 0
-45z"/>
<path d="M1170 1381 l0 -61 58 0 c70 0 102 19 102 59 0 40 -18 51 -94 58 l-66
6 0 -62z"/>
<path d="M1170 1175 l0 -65 73 0 c93 0 119 16 115 68 -4 47 -32 62 -120 62
l-68 0 0 -65z"/>
</g>
</svg>
